<svg width="510.00000000000006" height="300" xmlns="http://www.w3.org/2000/svg">
 <!-- Created with Method Draw - http://github.com/duopixel/Method-Draw/ -->
 <defs>
  <linearGradient id="svg_28" x1="0" y1="0" x2="1" y2="0">
   <stop stop-color="#ffffff" stop-opacity="0.5" offset="0"/>
   <stop stop-color="#ffffff" stop-opacity="0.097656" offset="1"/>
  </linearGradient>
     <linearGradient id="lineGrad" y2="0" x2="1" y1="0" x1="0"><stop offset="0" stop-opacity="1" stop-color="#0095e0"/><stop offset="1" stop-opacity="1" stop-color="#00ecbc"/></linearGradient>
     <style>
        path {
            fill: url(#lineGrad) !important;
        }
     </style>
     <clipPath id="dotsClip"><path d="M45.25 20 H486.75 V260 H45.25 Z"/></clipPath>
 </defs>
 <g>
  <title>background</title>
  <rect x="-1" y="-1" width="512" height="302" id="canvas_background" fill="#001a44"/>
  <g id="canvasGrid" display="none">
   <rect id="svg_3" width="100%" height="100%" x="0" y="0" stroke-width="0" fill="url(#gridpattern)"/>
  </g>
 </g>
 <g>
  <title>Layer 1</title>
  <line fill="none" stroke="#ffffff" x1="45.752212" y1="20" x2="45.752212" y2="260.442478" id="svg_1" stroke-linejoin="undefined" stroke-linecap="undefined"/>
  <line fill="none" stroke="#ffffff" x1="45.252212" y1="260" x2="486.752212" y2="260.442478" id="svg_2" stroke-linejoin="undefined" stroke-linecap="undefined"/>
  <rect fill="url(#svg_28)" stroke="#ffffff" stroke-width="0" x="45.752212" y="20" width="440" height="1" id="svg_15"/>
  <rect fill="url(#svg_28)" stroke="#ffffff" stroke-width="0" x="45.752212" y="68" width="440" height="1" id="svg_16"/>
  <rect fill="url(#svg_28)" stroke="#ffffff" stroke-width="0" x="45.752212" y="116" width="440" height="1" id="svg_17"/>
  <rect fill="url(#svg_28)" stroke="#ffffff" stroke-width="0" x="45.752212" y="164" width="440" height="1" id="svg_18"/>
  <rect fill="url(#svg_28)" stroke="#ffffff" stroke-width="0" x="45.752212" y="212" width="440" height="1" id="svg_19"/>
  <rect fill="#6e7d95" stroke="#ffffff" stroke-width="0" stroke-opacity="null" x="119.052212" y="20.442478" width="1" height="239" id="svg_22"/>
  <rect fill="#5c6d87" stroke="#ffffff" stroke-width="0" stroke-opacity="null" x="192.23138" y="20.442478" width="1" height="239" id="svg_23"/>
  <rect fill="#4c5e7c" stroke="#ffffff" stroke-width="0" stroke-opacity="null" x="265.752212" y="20.442478" width="1" height="239" id="svg_24"/>
  <rect fill="#3b4f6f" stroke="#ffffff" stroke-width="0" stroke-opacity="null" x="339.082212" y="20.442478" width="1" height="239" id="svg_25"/>
  <rect fill="#293f62" stroke="#ffffff" stroke-width="0" stroke-opacity="null" x="411.798715" y="20.442478" width="1" height="240" id="svg_26"/>
  <rect fill="#193056" stroke="#ffffff" stroke-width="0" stroke-opacity="null" x="485.752212" y="20" width="1" height="240" id="svg_27"/>
  <text fill="#ffffff" stroke="#ffffff" stroke-width="0" x="15.557522" y="28.442478" id="svg_30" font-size="11" font-family="Helvetica, Arial, sans-serif" text-anchor="start" xml:space="preserve">$2.50</text>
  <text fill="#ffffff" stroke="#ffffff" stroke-width="0" stroke-opacity="null" x="15.557522" y="67.942478" id="svg_31" font-size="11" font-family="Helvetica, Arial, sans-serif" text-anchor="start" xml:space="preserve">$2.00</text>
  <text fill="#ffffff" stroke="#ffffff" stroke-width="0" stroke-opacity="null" x="15.557522" y="116.442478" id="svg_32" font-size="11" font-family="Helvetica, Arial, sans-serif" text-anchor="start" xml:space="preserve">$1.50</text>
  <text fill="#ffffff" stroke="#ffffff" stroke-width="0" stroke-opacity="null" x="15.557522" y="164.442478" id="svg_33" font-size="11" font-family="Helvetica, Arial, sans-serif" text-anchor="start" xml:space="preserve">$1.00</text>
  <text fill="#ffffff" stroke="#ffffff" stroke-width="0" stroke-opacity="null" x="15.557522" y="212.442478" id="svg_34" font-size="11" font-family="Helvetica, Arial, sans-serif" text-anchor="start" xml:space="preserve">$0.50</text>
  <text fill="#ffffff" stroke="#ffffff" stroke-width="0" stroke-opacity="null" x="15.557522" y="260.442478" id="svg_35" font-size="11" font-family="Helvetica, Arial, sans-serif" text-anchor="start" xml:space="preserve">$0.00</text>
  <text fill="#ffffff" stroke="#ffffff" stroke-width="0" x="45.752212" y="271.426853" id="svg_36" font-size="10" font-family="Helvetica, Arial, sans-serif" text-anchor="start" xml:space="preserve">Mon</text>
  <text fill="#ffffff" stroke="#ffffff" stroke-width="0" x="119.082212" y="271.426853" id="svg_37" font-size="10" font-family="Helvetica, Arial, sans-serif" text-anchor="start" xml:space="preserve">Tue</text>
  <text fill="#ffffff" stroke="#ffffff" stroke-width="0" x="192.412212" y="271.426853" id="svg_38" font-size="10" font-family="Helvetica, Arial, sans-serif" text-anchor="start" xml:space="preserve">Wed</text>
  <text fill="#ffffff" stroke="#ffffff" stroke-width="0" x="265.752212" y="271.442478" id="svg_39" font-size="10" font-family="Helvetica, Arial, sans-serif" text-anchor="start" xml:space="preserve">Thu</text>
  <text fill="#ffffff" stroke="#ffffff" stroke-width="0" x="339.082212" y="271.426853" id="svg_40" font-size="10" font-family="Helvetica, Arial, sans-serif" text-anchor="start" xml:space="preserve">Fri</text>
  <text fill="#ffffff" stroke="#ffffff" stroke-width="0" x="412.412212" y="271.426853" id="svg_41" font-size="10" font-family="Helvetica, Arial, sans-serif" text-anchor="start" xml:space="preserve">Sat</text>
  <text fill="#ffffff" stroke="#ffffff" stroke-width="0" x="469.345962" y="271.442478" id="svg_42" font-size="10" font-family="Helvetica, Arial, sans-serif" text-anchor="start" xml:space="preserve">Sun</text>
  
     <path clip-path="url(#dotsClip)" d="M40 115 A1 0.85, 0, 0 1, 52 115 
              L113.33 115 A1 0.8, 0, 0 1, 125.33 115
              L186.66 115 A1 0.8, 0, 0 1, 198.66 115
              L260 115 A1 0.8, 0, 0 1, 272 115
              L333.33 115 A1 0.8, 0, 0 1, 345.33 115
              L406.66 115 A1 0.8, 0, 0 1, 418.66 115
              L480 115 A1 0.8, 0, 0 1, 492 115 
              L492 118 A1 0.8, 0, 0 1, 480 118 
              L418.66 118 A1 0.8, 0, 0 1, 406.66 118
              L345.33 118 A1 0.8, 0, 0 1, 333.33 118
              L272 118 A1 0.8, 0, 0 1, 260 118
              L198.66 118 A1 0.8, 0, 0 1, 186.66 118
              L125.33 118 A1 0.8, 0, 0 1, 113.33 118
              L52 118 A1 0.85, 0, 0 1, 40 118.5 L40 115"/>
 </g>
</svg>