<!--Scalable Vector Graphic-->
<svg xmlns="http://www.w3.org/2000/svg" xmlns:xlink="http://www.w3.org/1999/xlink" width="1200px" height="600px" viewBox="0 0 1200px 600px">
	<style type="text/css">
		@keyframes clockwise {
			0% {transform: rotate(0deg)}
			100% {transform: rotate(360deg)}
		}
		@keyframes anticlockwise{
			0% {transform: rotate(360deg)}
			100% {transform: rotate(0deg)}
		}
        @keyframes moveTheWave {
            0% {
                transform: translate3d(0,0,0);
                stroke-dashoffset: 35px;
        }
            100% {
                transform: translate3d(-320px,0,0);
                stroke-dashoffset: -445px;
        }
        }
		.clockwise {
			transform-origin: 50% 50%;
		}
		.anticlockwise {
			transform-origin: 50% 50%;
		}
	</style>
	<defs>
    <linearGradient id="grad1" x1="0%" y1="0%" x2="100%" y2="0%">
      <stop offset="0%" style="stop-color:rgb(0,149,224);stop-opacity:1" />
      <stop offset="100%" style="stop-color:rgb(0,236,188);stop-opacity:1" />
    </linearGradient>
	<linearGradient id="grad2" x1="0%" y1="0%" x2="100%" y2="0%">
      <stop offset="0%" style="stop-color:rgb(0,149,224);stop-opacity:1" />
      <stop offset="100%" style="stop-color:rgb(0,193,206);stop-opacity:1" />
    </linearGradient>
	<linearGradient id="grad3" x1="0%" y1="0%" x2="100%" y2="0%">
      <stop offset="0%" style="stop-color:rgb(0,193,206);stop-opacity:1" />
      <stop offset="100%" style="stop-color:rgb(0,236,188);stop-opacity:1" />
    </linearGradient>
	<linearGradient id="grad4" x1="0%" y1="0%" x2="100%" y2="0%">
      <stop offset="30%" style="stop-color:#001a44;stop-opacity:1" />
      <stop offset="70%" style="stop-color:#fff;stop-opacity:1" />
    </linearGradient>
	<linearGradient id="grad5" x1="0%" y1="0%" x2="100%" y2="0%">
      <stop offset="40%" style="stop-color:#fff;stop-opacity:1" />
      <stop offset="70%" style="stop-color:#001a44;stop-opacity:1" />
    </linearGradient>
	<linearGradient id="grad6" x1="0%" y1="0%" x2="100%" y2="0%">
      <stop offset="0%" style="stop-color:#001a44;stop-opacity:1" />
      <stop offset="20%" style="stop-color:rgb(0,149,224);stop-opacity:1" />
		<stop offset="80%" style="stop-color:rgb(0,149,224);stop-opacity:1" />
		<stop offset="100%" style="stop-color:#001a44;stop-opacity:1" />
    </linearGradient>
    <clipPath id="clip1">
        <rect x="0" y="0" width="231" height="100" />
    </clipPath>
  </defs>
	<rect height="100%" width="100%" fill="#001a44" />
    
    <path d="M5 340 c 40.982928 0 39.017172 -80 80 -80 s 39.017172 80 80 80 s 39.017172 -80 80 -80 s 39.017172 80 80 80 s 39.017172 -80 80 -80 s 39.017172 80 80 80 s 39.017172 -80 80 -80 s 39.017172 80 80 80 s 39.017172 -80 80 -80" 
          class="wave" style="animation: moveTheWave 9s linear infinite;" fill="transparent" stroke="rgb(0,149,224)" stroke-width="8" stroke-opacity="0.5" stroke-dasharray="0 50 470 50" stroke-linecap="round"/>
    <rect x="340" y="254" width="400" height="92" fill="#001a44"/>
    <rect x="0" y="254" width="5" height="92" fill="#001a44"/>
    
	<rect x="540" y="285" width="120" height="8" rx="4" ry="4" fill="url(#grad1)"/>
	<rect x="540" y="315" width="120" height="8" rx="4" ry="4" fill="url(#grad1)"/>
	<g transform="rotate(45 30 4)">
	<rect x="612.5" y="-140" width="60" height="8" rx="4" ry="4" fill="url(#grad2)"/>
	</g>
	<g transform="rotate(45 30 4)">
	<rect x="617.7" y="-241.9" width="60" height="8" rx="4" ry="4" fill="url(#grad3)" />
	</g>
	<g class="clockwise" style="animation: clockwise 50s linear infinite">
	<circle cx="600" cy="300" r="103" stroke-width="15" stroke="white" fill-opacity="0" 
			stroke-dasharray="100,12,53,52,52,52,4,4,4,4,149,52,36,4,4,4,4" />
	</g>
	
	<g class="anticlockwise" style="animation: anticlockwise 50s linear infinite">
	<circle cx="600" cy="300" r="120" stroke-width="10" stroke="white" stroke-opacity="0.7" fill-opacity="0"
			stroke-dasharray="80.5,14,81,79,9,7,161,11,21,39,21,109,81,14"/>
	<circle cx="600" cy="300" r="120" stroke-width="9" stroke="#4d5f7c" fill-opacity="0"
			stroke-dasharray="80,15,80,80,8,8,160,12,20,40,20,110"/>
	</g>
		
	<g class="clockwise" style="animation: clockwise 60s linear infinite">
	<circle cx="600" cy="300" r="142" stroke-width="24" stroke="white" stroke-opacity="0.7" fill-opacity="0"
			stroke-dasharray="50.5,199,49,5,7,9,161,5,21,5,11,5,6,9,11,49,41,49,101,49"/>
	<circle cx="600" cy="300" r="142" stroke-width="23" stroke="#4d5f7c" fill-opacity="0"
			stroke-dasharray="50,200,48,6,6,10,160,6,20,6,10,6,5,10,10,50,40,50,100"/>
	</g>
	<g>
	<circle cx="600" cy="300" r="161" stroke-width="4" stroke="url(#grad4)" fill-opacity="0"
			stroke-dasharray="0,44" stroke-linecap="round"/>
	</g>

	<g class="anticlockwise" style="animation: anticlockwise 70s linear infinite">
	<circle cx="600" cy="300" r="184" stroke-width="6" stroke="white" fill-opacity="0"
			stroke-dasharray="30,50,90,70,30,90,20,160,10,10,5,5,5,120,5,40,170,180"/>
	</g>
	
	<g class="clockwise" style="animation: clockwise 80s linear infinite">
	<circle cx="600" cy="300" r="199" stroke-width="11" stroke="white" stroke-opacity="0.7" fill-opacity="0" 
			stroke-dashoffset="-49.5"
			stroke-dasharray="181,59,81,7,71,39,9,49,181,39,31,7,121,79,141,59,41,199"/>
	<circle cx="600" cy="300" r="199" stroke-width="10" stroke="#001a44" fill-opacity="0" 
			stroke-dashoffset="-50"
			stroke-dasharray="180,60,80,8,70,40,8,50,180,40,30,8,120,80,140,60,40,200"/>
	<circle cx="600" cy="300" r="206" stroke-width="14" stroke="white" fill-opacity="0" 
			stroke-dashoffset="-49.5"
			stroke-dasharray="191,57.5,87,4,76.5,38,12,48,190,37,36,3.5,129,77.5,150.5,57,46,200"/>
	</g>
	<path d="M0 590 H 380 L 420 560 H 780 L 820 590 H 1200 " fill="transparent" stroke="url(#grad6)" stroke-width="2"/>
    <path d="M381.7 245.6 L 340 235 H 81" fill="transparent" stroke="white" stroke-width="1"/>
    <path d="M381.7 354.4 L 340 365 H 5" fill="transparent" stroke="white" stroke-width="1"/>
    <path d="M795.6 188.9 L 890 135 H 1020" fill="transparent" stroke="white" stroke-width="1"/>
    <path d="M795.6 411.1 L 890 465 H 1121" fill="transparent" stroke="white" stroke-width="1"/>
    <g clip-path="url(#clip1)" transform="translate(890,355)" opacity="0.5">
        <line stroke="#ffffff" opacity="0.3" stroke-linecap="undefined" stroke-linejoin="undefined" id="svg_1" 
              y2="41.032766" x2="49.850425" y1="7.174517" x1="-4.283403" fill="none"/>
        <line stroke="#ffffff" opacity="0.3" stroke-linecap="undefined" stroke-linejoin="undefined" id="svg_2" 
              y2="21.347738" x2="100.244099" y1="41.229617" x1="49.259875" fill="none"/>
        <line stroke="#ffffff" opacity="0.3" stroke-linecap="undefined" stroke-linejoin="undefined" id="svg_3" y2="21.150891" x2="99.259843" y1="1.465854" x1="-1.9212" fill="none"/>
        <line stroke="#ffffff" opacity="0.3" stroke-linecap="undefined" stroke-linejoin="undefined" id="svg_4" y2="68.394954" x2="117.566921" y1="21.741434" x1="100.244101" fill="none"/>
        <line stroke="#ffffff" opacity="0.3" stroke-linecap="undefined" stroke-linejoin="undefined" id="svg_5" y2="3.828063" x2="126.818821" y1="21.54459" x1="100.244172" fill="none"/>
        <line stroke="#ffffff" transform="rotate(2.119704484939575 60.381904602051435,85.42250061035139) " opacity="0.3" stroke-linecap="undefined" stroke-linejoin="undefined" id="svg_6" y2="65.436791" x2="115.84309" y1="105.408212" x1="4.920718" fill="none"/>
        <line stroke="#ffffff" opacity="0.3" stroke-linecap="undefined" stroke-linejoin="undefined" id="svg_7" y2="68.001257" x2="116.779518" y1="40.835917" x1="49.85043" fill="none"/>
        <line stroke="#ffffff" transform="rotate(-5.600850582122803 23.177211761474673,70.06818389892577) " opacity="0.3" stroke-linecap="undefined" stroke-linejoin="undefined" id="svg_8" y2="96.152853" x2="-5.419727" y1="43.983514" x1="51.774153" fill="none"/>
        <line stroke="#ffffff" opacity="0.3" stroke-linecap="undefined" stroke-linejoin="undefined" id="svg_9" y2="-12.116811" x2="204.574749" y1="3.434362" x1="126.622038" fill="none"/>
        <line opacity="0.3" stroke-linecap="undefined" stroke-linejoin="undefined" id="svg_10" y2="103.040607" x2="103.590553" y1="67.607555" x1="116.976373" stroke="#ffffff" fill="none"/>
        <line opacity="0.3" stroke-linecap="undefined" stroke-linejoin="undefined" id="svg_11" y2="65.245352" x2="184.889722" y1="21.347738" x1="100.637799" stroke="#ffffff" fill="none"/>
        <line stroke="#ffffff" opacity="0.3" stroke-linecap="undefined" stroke-linejoin="undefined" id="svg_12" y2="105.599661" x2="155.165328" y1="68.001255" x1="117.370073" fill="none"/>
        <line opacity="0.3" stroke-linecap="undefined" stroke-linejoin="undefined" id="svg_13" y2="3.631212" x2="127.212588" y1="64.851651" x1="184.889722" stroke="#ffffff" fill="none"/>
        <line opacity="0.3" stroke-linecap="undefined" stroke-linejoin="undefined" id="svg_15" y2="64.654801" x2="184.889722" y1="67.410705" x1="116.582672" stroke="#ffffff" fill="none"/>
        <line opacity="0.3" stroke="#ffffff" stroke-linecap="undefined" stroke-linejoin="undefined" id="svg_16" y2="17.213891" x2="218.747969" y1="100.481555" x1="231.34639" fill="none"/>
        <line stroke="#ffffff" opacity="0.3" transform="rotate(-1.133334994316101 187.64562988281222,59.930393218994894) " stroke-linecap="undefined" stroke-linejoin="undefined" id="svg_19" y2="17.556276" x2="219.880697" y1="102.304508" x1="155.410558" fill-opacity="null" stroke-opacity="null" stroke-width="null" fill="none"/>
        <line opacity="0.3" stroke-linecap="undefined" stroke-linejoin="undefined" id="svg_20" y2="17.607582" x2="218.747971" y1="3.237511" x1="127.803138" fill-opacity="null" stroke-opacity="null" stroke-width="null" stroke="#ffffff" fill="none"/>
        <line stroke="#ffffff" opacity="0.3" stroke-linecap="undefined" stroke-linejoin="undefined" id="svg_21" y2="17.410732" x2="218.354266" y1="-5.423902" x1="223.078681" fill-opacity="null" stroke-opacity="null" stroke-width="null" fill="none"/>
        <ellipse ry="2" rx="2" id="svg_22" cy="40.826752" cx="49.685017" stroke-width="null" stroke="#4c607b" fill="#4c607b"/>
        <ellipse ry="2" rx="2" id="svg_23" cy="21.338573" cx="99.88184" stroke-width="null" stroke="#4c607b" fill="#4c607b"/>
        <ellipse ry="2" rx="2" id="svg_24" cy="67.401541" cx="116.810963" stroke-width="null" stroke="#4c607b" fill="#4c607b"/>
        <ellipse ry="2" rx="2" id="svg_25" cy="3.425198" cx="128.031429" stroke-width="null" stroke="#4c607b" fill="#4c607b"/>
        <ellipse ry="2" rx="2" id="svg_26" cy="64.645636" cx="184.133762" stroke-width="null" stroke="#4c607b" fill="#4c607b"/>
        <ellipse ry="2" rx="2" id="svg_27" cy="17.598417" cx="217.598316" stroke-width="null" stroke="#4c607b" fill="#4c607b"/>
    </g>
	
</svg>
