<!DOCTYPE svg PUBLIC "-//W3C//DTD SVG 20010904//EN" "http://www.w3.org/TR/2001/REC-SVG-20010904/DTD/svg10.dtd">
<svg version="1.0" xmlns="http://www.w3.org/2000/svg" width="1600px" height="1600px" viewBox="0 0 16000 16000" preserveAspectRatio="xMidYMid meet" fill="url(#grad1)">
<defs>
    <linearGradient id="grad1" x1="0%" y1="0%" x2="100%" y2="30%">
      <stop offset="0%" style="stop-color:rgb(0,149,224);stop-opacity:1" />
      <stop offset="100%" style="stop-color:rgb(0,236,188);stop-opacity:1" />
    </linearGradient>
    <linearGradient id="grad2" x1="0%" y1="0%" x2="100%" y2="30%">
      <stop offset="0%" style="stop-color:#00c7cb;stop-opacity:1" />
      <stop offset="100%" style="stop-color:rgb(0,236,188);stop-opacity:1" />
    </linearGradient>
</defs>
<g id="layer101" stroke="none">
 <path d="M2320 15050 c-321 -31 -611 -166 -808 -375 -202 -215 -302 -477 -302 -798 0 -222 15 -288 220 -952 61 -198 181 -585 265 -860 85 -275 213 -691 285 -925 73 -234 194 -627 270 -875 76 -247 195 -634 265 -860 70 -225 192 -619 270 -875 79 -256 200 -649 270 -875 70 -225 198 -642 285 -925 87 -283 215 -699 285 -925 70 -225 133 -430 140 -455 8 -25 74 -241 148 -480 74 -239 204 -662 290 -940 85 -278 212 -689 282 -915 70 -225 196 -635 280 -910 85 -275 194 -628 242 -785 l88 -285 800 -2 800 -2 86 118 c171 233 559 813 559 836 0 3 15 28 33 57 19 29 49 80 67 113 18 33 67 121 108 195 190 343 344 679 476 1040 66 177 109 315 109 345 0 59 -73 117 -337 270 -197 114 -246 156 -246 206 0 19 4 39 8 45 23 33 88 66 187 93 193 53 458 122 505 131 25 4 59 14 75 20 17 6 48 15 70 20 22 4 84 19 138 34 95 25 221 59 362 96 39 10 115 31 170 45 586 156 576 154 685 103 102 -47 159 -128 199 -278 11 -41 36 -138 56 -215 44 -169 68 -260 90 -340 9 -33 29 -109 45 -170 67 -260 112 -430 116 -437 2 -4 8 -26 13 -50 8 -39 47 -191 115 -448 13 -52 29 -120 35 -151 18 -101 -14 -159 -89 -159 -37 0 -68 16 -324 164 -141 81 -153 86 -208 86 -64 0 -118 -21 -155 -62 -26 -29 -84 -123 -305 -503 -447 -769 -609 -1046 -656 -1125 -27 -47 -49 -86 -48 -87 7 -8 2150 -2 2231 6 242 24 318 34 445 56 708 124 1314 371 1850 753 588 420 1040 975 1314 1617 10 22 22 49 27 60 63 137 173 518 213 735 45 246 59 410 59 700 0 273 -6 359 -38 585 -99 681 -441 1361 -989 1964 -186 204 -525 504 -716 634 -131 89 -281 187 -305 201 -16 9 -43 25 -60 35 -116 70 -372 198 -504 251 -25 10 -91 36 -146 58 -178 71 -576 188 -597 176 -9 -6 -266 -327 -306 -384 -327 -459 -563 -894 -724 -1335 -22 -60 -46 -130 -53 -155 -7 -25 -24 -83 -37 -130 -44 -151 -88 -341 -88 -382 0 -40 112 -126 313 -241 227 -131 277 -172 277 -230 0 -62 -52 -96 -210 -137 -47 -13 -116 -31 -155 -42 -38 -10 -155 -41 -260 -68 -212 -56 -258 -68 -528 -140 -268 -72 -578 -152 -607 -157 -14 -3 -52 -13 -85 -23 -151 -45 -209 -54 -270 -42 -156 32 -235 118 -285 312 -12 47 -35 137 -51 200 -17 63 -45 176 -64 250 -19 74 -49 187 -66 250 -17 63 -39 147 -49 185 -10 39 -37 140 -59 225 -23 85 -57 214 -76 285 -100 372 -118 456 -106 496 14 46 44 69 89 69 41 0 90 -22 223 -101 57 -34 124 -73 149 -87 25 -13 59 -32 75 -42 68 -39 159 -45 180 -10 3 6 17 63 31 128 95 459 251 906 508 1455 25 55 46 102 46 107 0 4 -62 10 -137 14 -169 7 -710 31 -1178 51 -440 19 -496 23 -570 41 -270 67 -526 268 -649 511 -37 73 -58 135 -106 308 -23 83 -66 236 -95 340 -62 221 -185 661 -192 690 -3 11 -26 90 -50 175 -25 85 -51 175 -58 200 -7 25 -54 178 -105 340 -50 162 -154 498 -230 745 -77 248 -179 581 -229 740 -391 1267 -551 1786 -551 1791 0 7 -2686 1 -2760 -6z"/>
 <path d="M9495 15050 c-86 -10 -170 -32 -221 -58 -38 -19 -401 -370 -536 -518 -257 -280 -611 -755 -823 -1101 -47 -77 -145 -244 -145 -248 0 -1 -25 -47 -56 -101 -77 -134 -289 -569 -357 -729 -219 -521 -398 -1081 -453 -1425 -55 -340 22 -829 165 -1039 52 -76 187 -201 259 -239 77 -41 134 -49 437 -62 143 -6 357 -15 475 -20 118 -5 325 -14 460 -20 135 -5 346 -15 469 -21 123 -6 227 -7 231 -2 4 4 59 109 122 233 153 298 237 455 381 710 33 58 71 125 85 150 29 52 110 190 243 413 52 87 99 165 104 175 18 31 58 96 90 147 18 28 81 127 140 220 216 339 470 718 726 1080 131 184 160 224 216 300 29 39 56 75 61 80 168 225 488 636 548 705 13 14 46 55 76 91 281 349 554 649 926 1017 l275 272 -1914 -1 c-1053 -1 -1945 -5 -1984 -9z" fill="url(#grad2)"/>
 </g>

</svg>