<!DOCTYPE svg PUBLIC "-//W3C//DTD SVG 20010904//EN" "http://www.w3.org/TR/2001/REC-SVG-20010904/DTD/svg10.dtd">
<svg version="1.0" xmlns="http://www.w3.org/2000/svg" width="1600px" height="1600px" viewBox="0 0 16000 16000" preserveAspectRatio="xMidYMid meet">
    <defs>
        <linearGradient id="grad1" x1="0%" y1="0%" x2="100%" y2="30%">
      <stop offset="0%" style="stop-color:rgb(0,149,224);stop-opacity:1" />
      <stop offset="100%" style="stop-color:rgb(0,236,188);stop-opacity:1" />
    </linearGradient>
    </defs>
<g id="layer101" fill="url(#grad1)" stroke="none">
 <path d="M200 8000 l0 -7800 7800 0 7800 0 0 7800 0 7800 -7800 0 -7800 0 0 -7800z"/>
 </g>
<g id="layer102" fill="#001632" stroke="none">
 <path d="M0 8000 l0 -8000 8000 0 8000 0 0 8000 0 8000 -8000 0 -8000 0 0 -8000z m5049 7153 c22 -71 76 -247 121 -393 245 -793 340 -1102 417 -1350 47 -151 93 -302 103 -335 116 -377 164 -531 258 -835 61 -195 167 -539 236 -765 70 -225 131 -419 136 -430 11 -24 54 -174 155 -535 190 -684 189 -678 237 -775 55 -110 121 -199 223 -301 199 -198 439 -318 689 -344 93 -9 466 -28 1131 -55 530 -22 577 -25 571 -39 -214 -476 -273 -621 -365 -890 -90 -263 -158 -517 -196 -730 -8 -43 -20 -85 -26 -92 -15 -18 -99 -18 -142 -1 -18 8 -119 64 -225 126 -213 124 -261 145 -310 136 -41 -8 -72 -54 -72 -110 0 -35 31 -166 100 -420 12 -44 43 -163 70 -265 48 -185 106 -407 161 -615 16 -60 49 -189 75 -285 134 -516 135 -518 205 -588 51 -50 105 -78 182 -93 63 -13 86 -10 272 40 61 16 171 45 245 64 74 20 171 45 215 57 210 55 268 71 375 98 63 17 149 39 190 51 41 11 138 36 215 56 77 20 174 45 215 56 41 11 127 34 190 50 178 47 209 57 246 80 41 25 54 47 54 89 0 52 -58 100 -275 226 -271 157 -345 217 -345 276 0 33 62 294 104 433 36 123 68 217 106 315 12 30 27 71 35 91 7 19 45 107 85 195 217 480 517 951 898 1410 l34 41 151 -39 c839 -218 1577 -655 2212 -1309 659 -679 1056 -1500 1130 -2339 19 -214 19 -592 0 -790 -82 -849 -434 -1646 -1003 -2270 -771 -844 -1851 -1344 -3102 -1436 -181 -13 -378 -15 -1247 -12 -567 2 -1035 7 -1039 10 -3 4 11 38 33 75 718 1235 989 1692 1020 1721 20 18 59 39 87 47 73 22 132 7 252 -64 55 -31 137 -80 184 -107 145 -85 187 -97 240 -69 20 10 33 28 42 56 12 43 5 94 -41 264 -11 39 -37 140 -60 225 -22 85 -47 180 -55 210 -22 83 -61 232 -95 360 -16 63 -39 149 -49 190 -11 41 -44 165 -73 275 -28 110 -73 281 -99 380 -26 99 -59 203 -73 231 -53 104 -172 176 -292 176 -43 0 -134 -19 -315 -67 -556 -147 -660 -174 -800 -210 -80 -20 -165 -43 -190 -50 -25 -8 -133 -37 -240 -64 -570 -148 -579 -151 -614 -210 l-19 -34 22 -43 c28 -53 45 -64 391 -267 157 -92 218 -156 205 -216 -12 -56 -94 -300 -148 -441 -269 -704 -749 -1555 -1268 -2248 l-86 -115 -834 2 c-458 1 -835 3 -836 5 -1 1 -49 155 -107 342 -57 186 -171 553 -251 814 -81 261 -153 495 -160 520 -7 25 -78 257 -158 515 -278 898 -357 1155 -622 2015 -147 476 -334 1083 -417 1350 -82 267 -156 505 -163 530 -7 25 -50 164 -95 310 -44 146 -97 317 -117 380 -19 63 -41 133 -49 155 -7 22 -45 146 -84 275 -62 203 -222 722 -377 1220 -24 80 -55 179 -67 220 -13 41 -76 246 -140 455 -65 209 -126 407 -136 440 -45 148 -272 883 -410 1330 -84 270 -158 510 -165 535 -7 25 -61 200 -120 390 -59 190 -122 395 -140 455 -19 61 -79 258 -135 438 -129 419 -140 470 -147 677 -8 257 34 456 136 646 193 358 581 596 1031 634 47 4 711 8 1477 9 l1392 1 40 -127z m8500 -22 c-304 -292 -544 -543 -799 -836 -825 -950 -1675 -2144 -2427 -3410 -127 -214 -350 -608 -448 -790 -26 -49 -60 -112 -75 -140 -15 -27 -53 -101 -86 -164 l-58 -113 -111 6 c-60 4 -227 11 -370 16 -143 5 -296 12 -340 15 -44 3 -253 12 -465 20 -376 15 -519 26 -590 47 -133 40 -310 146 -384 230 -205 234 -321 955 -246 1528 29 222 58 384 75 417 8 16 15 31 15 35 0 32 214 533 330 774 409 854 1010 1689 1638 2277 75 71 153 140 173 153 48 33 156 63 259 73 47 5 980 9 2075 10 l1989 1 -155 -149z"/>
 </g>

</svg>